<svg width="369" height="370" viewBox="0 0 369 370" fill="none" xmlns="http://www.w3.org/2000/svg">
<g clip-path="url(#clip0_236_146)">
<path fill-rule="evenodd" clip-rule="evenodd" d="M111.664 59.3764C118.608 24.8517 149.092 0 184.499 0C219.906 0 250.391 24.8517 257.333 59.3764L265.631 100.626C269.968 122.196 278.514 142.712 290.784 161.015L305.062 182.312C313.972 195.601 319.798 210.616 322.208 226.273C336.398 227.468 348.835 236.517 354.191 249.831L366.287 279.903C372.385 295.063 367.974 312.403 355.359 322.855L309.01 361.263C295.515 372.447 276.059 372.943 262.005 362.462L243.341 348.542C243.094 348.36 242.85 348.172 242.609 347.983C233.447 350.452 223.809 351.771 213.861 351.771H155.137C145.189 351.771 135.552 350.454 126.39 347.983C126.149 348.172 125.905 348.36 125.659 348.542L106.996 362.462C92.9415 372.943 73.4864 372.447 59.9903 361.263L13.6397 322.855C1.02625 312.403 -3.38495 295.063 2.71292 279.903L14.8098 249.831C20.165 236.517 32.6016 227.469 46.7887 226.273C49.2 210.616 55.0253 195.601 63.9347 182.312L78.2127 161.015C90.4832 142.712 99.029 122.196 103.367 100.626L111.664 59.3764ZM266.775 233.738C261.609 237.612 257.419 242.814 254.76 248.98L235.865 292.825C226.326 298.415 215.301 301.518 203.802 301.518H165.196C153.698 301.518 142.674 298.415 133.136 292.828L114.239 248.98C111.581 242.814 107.392 237.612 102.224 233.737C102.858 225.788 105.015 217.931 108.696 210.61L139.649 149.051L139.835 149.235C164.504 173.766 204.501 173.766 229.17 149.235L229.352 149.054L260.302 210.61C263.985 217.931 266.14 225.788 266.775 233.738ZM222.401 105.303V75.3794H197.133V95.1425C202.495 96.2303 207.748 98.0182 212.753 100.506L222.401 105.303ZM171.865 95.1438V75.3794H146.597V105.307L156.252 100.506C161.254 98.0192 166.505 96.2318 171.865 95.1438ZM50.0007 251.265C44.8347 251.265 40.189 254.392 38.2705 259.163L26.1737 289.234C24.1409 294.288 25.6113 300.068 29.8159 303.553L76.1665 341.961C80.6651 345.689 87.1502 345.854 91.835 342.361L110.498 328.442C115.16 324.966 116.826 318.767 114.53 313.442L91.0141 258.879C89.0235 254.259 84.4557 251.265 79.4017 251.265H50.0007ZM330.73 259.163C328.811 254.392 324.166 251.265 318.998 251.265H289.599C284.543 251.265 279.978 254.259 277.985 258.879L254.47 313.442C252.175 318.767 253.84 324.966 258.502 328.442L277.166 342.361C281.85 345.854 288.334 345.689 292.833 341.961L339.185 303.553C343.389 300.068 344.86 294.288 342.826 289.234L330.73 259.163ZM167.552 122.98C178.222 117.675 190.782 117.675 201.452 122.98L213.71 129.074L211.303 131.468C196.501 146.187 172.503 146.187 157.701 131.468L155.295 129.074L167.552 122.98Z" fill="black"/>
</g>
<defs>
<clipPath id="clip0_236_146">
<rect width="369" height="370" fill="white"/>
</clipPath>
</defs>
</svg>
