<svg width="370" height="370" viewBox="0 0 370 370" fill="none" xmlns="http://www.w3.org/2000/svg">
<g clip-path="url(#clip0_236_139)">
<path fill-rule="evenodd" clip-rule="evenodd" d="M169.198 193.031C169.291 230.01 169.402 292.84 169.495 341.672C236.355 350.713 303.215 360.034 369.963 370C369.963 311.702 370.037 253.658 369.963 198.188C303.048 198.188 236.151 193.031 169.198 193.031ZM0 193.049V318.601C50.4276 325.405 100.855 331.908 151.19 339.341C151.283 290.769 151.153 242.182 151.153 193.609C100.762 193.701 50.3905 192.882 0 193.049ZM0 52.6003V177.801C50.4276 177.93 100.855 177.167 151.283 177.222C151.246 128.761 151.246 80.3581 151.19 31.8962C100.725 38.2012 50.2606 44.8716 0 52.6003ZM370 175.226C303.177 175.485 236.355 176.504 169.495 176.708C169.458 127.451 169.458 78.2525 169.495 29.0327C236.225 18.8448 303.103 9.26332 369.963 0C370 58.4278 369.963 116.798 370 175.226Z" fill="black"/>
</g>
<defs>
<clipPath id="clip0_236_139">
<rect width="370" height="370" fill="white"/>
</clipPath>
</defs>
</svg>
