<svg width="370" height="370" viewBox="0 0 370 370" fill="none" xmlns="http://www.w3.org/2000/svg">
<path d="M27.867 286.777C-1.42107 278.374 -6.26951 261.063 7.01745 251.007C16.591 244.714 27.5956 239.235 39.2417 235.114L40.315 234.781L126.884 203.737V239.396L64.8287 262.087C53.9598 266.27 52.1092 271.835 61.1399 274.821C65.6429 275.968 70.7998 276.635 76.117 276.635C83.7043 276.635 90.9708 275.29 97.6945 272.834L97.2627 272.97L127.143 262.087V294.069C125.292 294.526 123.195 294.748 121.135 295.192C111.574 296.87 100.569 297.833 89.3423 297.833C67.4071 297.833 46.3355 294.156 26.695 287.394L28.052 287.801L27.867 286.777ZM210.294 290.429L307.362 255.35C318.379 251.377 320.094 245.713 311.149 242.74C306.671 241.641 301.539 241.012 296.246 241.012C288.573 241.012 281.195 242.345 274.36 244.776L274.817 244.64L209.986 267.763V230.956L213.687 229.648C226.641 225.342 241.865 221.998 257.57 220.258L258.594 220.16C264.367 219.543 271.054 219.197 277.827 219.197C300.984 219.197 323.19 223.281 343.744 230.783L342.411 230.351C370.898 239.618 373.858 253.043 366.703 262.297C359.807 269.169 351.467 274.611 342.177 278.115L341.696 278.276L209.974 326.187V290.787L210.294 290.429ZM138.518 40V310.554L198.87 330V103.089C198.87 92.4525 203.558 85.3453 211.109 87.813C220.916 90.5893 222.829 100.362 222.829 111.022V201.614C260.457 220.012 290.078 201.577 290.078 153.012C290.078 103.101 272.72 80.928 221.657 63.16C199.635 55.1644 171.815 47.1936 143.354 40.8884L138.555 40H138.518Z" fill="black"/>
</svg>
