<svg width="370" height="370" viewBox="0 0 370 370" fill="none" xmlns="http://www.w3.org/2000/svg">
<g clip-path="url(#clip0_236_153)">
<path d="M89.418 129.5V129.514C89.4433 136.441 92.2074 143.075 97.1034 147.975C101.999 152.874 108.637 155.635 115.564 155.66C129.966 155.66 141.727 143.881 141.727 129.5C141.727 115.119 129.948 103.354 115.564 103.354C101.179 103.354 89.418 115.115 89.418 129.5Z" fill="black"/>
<path d="M175.545 0H94.7608C69.6313 0 45.5279 9.98711 27.7552 27.7548C18.9551 36.5534 11.9745 46.9994 7.21222 58.4963C2.44992 69.9931 -0.000804942 82.3154 7.08509e-06 94.7595V274.947C-0.00481069 287.396 2.44744 299.719 7.2074 311.219C11.9674 322.719 18.9435 333.169 27.7456 341.971C36.5476 350.773 46.9925 357.753 58.4926 362.518C69.9906 367.282 82.3147 369.735 94.7608 369.735H175.545C177.005 369.735 178.176 368.564 178.176 367.124V2.6112C178.465 1.1707 177.294 0 175.545 0ZM148.513 340.072H94.7608C86.2044 340.135 77.7251 338.468 69.8288 335.168C61.9325 331.868 54.7877 327.007 48.8185 320.874C36.6295 308.661 29.6389 292.401 29.6389 274.951V94.7595C29.5763 86.2081 31.2433 77.7289 34.5386 69.8327C37.8329 61.9366 42.6903 54.7883 48.8185 48.8178C61.0508 36.629 77.3108 29.6385 94.7608 29.6385H148.513V340.072ZM342.245 28.0439C333.446 19.2439 323 12.2634 311.503 7.50118C300.006 2.73894 287.684 0.288253 275.239 0.289065H217.99C216.53 0.289065 215.668 1.45976 215.668 2.6112V367.389C215.378 368.829 216.53 370 218.279 370H275.239C300.371 370 324.474 360.016 342.245 342.245C351.045 333.447 358.025 323.001 362.788 311.504C367.55 300.007 370.001 287.685 370 275.24V95.0486C370 69.9169 360.016 45.8146 342.245 28.0439ZM288.623 240.948C267.989 240.948 251.131 224.091 251.131 203.457C251.131 182.822 267.984 165.965 288.623 165.965C309.258 165.965 326.115 182.822 326.115 203.457C326.115 224.091 309.258 240.948 288.623 240.948Z" fill="black"/>
</g>
<defs>
<clipPath id="clip0_236_153">
<rect width="370" height="370" fill="white"/>
</clipPath>
</defs>
</svg>
