<svg width="370" height="370" viewBox="0 0 370 370" fill="none" xmlns="http://www.w3.org/2000/svg">
<g clip-path="url(#clip0_236_148)">
<path d="M370 185V184.969C370 129.192 345.241 79.1954 306.113 45.3867L305.882 45.1863C276.436 60.9575 251.184 80.0434 229.308 102.428L229.246 102.49C229.924 103.199 230.587 103.8 231.265 104.525C288.6 166.377 340.816 254.529 332.183 296.786C355.77 266.184 369.985 227.288 369.985 185.077C369.985 185.046 369.985 185.015 369.985 184.985L370 185Z" fill="black"/>
<path d="M194.111 60.9729C220.011 43.9529 251.138 32.7141 284.638 29.8004L285.378 29.7541C257.058 11.1 222.324 0.0153809 185 0.0153809C151.531 0.0153809 120.142 8.94163 93.0859 24.5433L93.9801 24.0654C104.124 32.8066 137.717 36.1058 178.525 61.0654C180.73 62.4375 183.397 63.2546 186.264 63.2546C189.178 63.2546 191.891 62.4066 194.173 60.9575L194.111 60.9883V60.9729Z" fill="black"/>
<path d="M141.309 104.494C142.018 103.739 142.743 103.107 143.437 102.367C125.399 84.8842 105.727 68.8509 84.7608 54.575L83.2346 53.5884C78.5787 50.1813 72.7358 48.1309 66.415 48.1309C64.1642 48.1309 61.975 48.3929 59.8629 48.8863L60.0633 48.8554C23.0942 82.7413 0 131.242 0 185.139C0 229.986 15.9871 271.102 42.5808 303.092L42.3342 302.783C26.4396 263.517 80.5212 169.09 141.294 104.494H141.309Z" fill="black"/>
<path d="M186.295 141.802C125.214 195.807 40.1913 276.39 53.2184 314.747C86.7342 348.864 133.354 370 184.908 370C238.758 370 287.228 346.937 320.975 310.137L321.098 309.998C328.591 269.637 247.792 196.886 186.295 141.802Z" fill="black"/>
</g>
<defs>
<clipPath id="clip0_236_148">
<rect width="370" height="370" fill="white"/>
</clipPath>
</defs>
</svg>
