<svg width="1072" height="148" viewBox="0 0 1072 148" fill="none" xmlns="http://www.w3.org/2000/svg">
<path d="M63.6063 140.37C48.438 138.233 35.4905 131.864 24.8894 121.305C15.7549 112.212 10.2239 102.533 6.91372 89.9623C5.40527 84.0961 4.86055 78.7327 5.15386 71.2743C5.48907 61.9303 6.99752 55.3936 10.8106 46.3848L12.738 41.8595L25.4341 54.5556L38.1303 67.2098L37.837 72.0704C37.4179 80.6602 39.5968 87.8253 44.7088 94.5715C53.8852 106.639 69.8915 111.081 84.2218 105.508C86.8616 104.502 90.926 102.198 90.926 101.737C90.926 101.569 88.2862 97.7141 85.0179 93.1887L79.1098 84.9341L92.0155 85.1855C99.1387 85.3532 112.547 85.4789 121.849 85.4789H138.694V113.134V140.789H122.143H105.592V136.389C105.592 133.959 105.508 131.989 105.424 131.989C105.382 131.989 103.329 132.911 100.94 134.043C91.3031 138.568 83.8447 140.328 73.3274 140.579C69.5144 140.663 65.1567 140.579 63.6063 140.37Z" fill="white"/>
<path d="M272.862 139.657C272.443 138.987 271.395 137.353 270.599 135.97C269.761 134.587 256.143 112.002 240.346 85.7722L211.602 38.1303L220.904 22.8363C228.195 10.8106 230.29 7.62608 230.709 8.04509C230.961 8.3384 248.769 37.6275 270.264 73.118C291.759 108.608 309.819 138.358 310.364 139.238L311.327 140.789H292.514H273.658L272.862 139.657Z" fill="white"/>
<path d="M422.785 111.164L422.743 81.4983L405.815 98.5521L388.887 115.564L355.366 82.0011L321.803 48.3962V27.7807V7.12329H324.443H327.04L358.047 38.1303L389.054 69.1374L420.062 38.1303L451.069 7.12329H453.289H455.468V73.956V140.789H439.127H422.785V111.164Z" fill="white"/>
<path d="M726.151 90.0043V39.1779L742.493 55.5194L758.834 71.8609V106.304V140.789H742.493H726.151V90.0043Z" fill="white"/>
<path d="M924.764 76.7634C908.045 41.65 893.799 11.6067 893.045 10.0145L891.704 7.12329H910.015H928.367L942.991 37.8789C951.036 54.8071 957.657 68.6345 957.698 68.5926C957.74 68.5507 962.014 59.4581 967.21 48.3962C979.278 22.6687 980.87 19.4004 980.912 19.9451C980.912 20.1965 984.306 27.7807 988.454 36.7895C992.602 45.7983 995.996 53.3824 995.996 53.6338C995.996 53.9691 969.389 110.578 956.316 138.065L955.142 140.579L924.764 76.7634Z" fill="white"/>
<path d="M620.476 74.4588C603.254 38.256 589.05 8.25463 588.924 7.87752C588.631 7.16519 589.637 7.12329 606.229 7.12329H623.786L628.731 17.5148C631.454 23.2134 641.762 44.8765 651.609 65.7014L669.542 103.538L660.953 121.64C656.218 131.612 652.195 139.867 652.028 140.035C651.902 140.202 637.656 110.704 620.476 74.4588Z" fill="white"/>
<path d="M486.391 70.5201L465.944 50.0722V28.5768V7.12329H521.882H577.82V23.4648V39.8064H540.025H502.188L511.197 48.8152L520.206 57.824H548.992H577.82V74.1655V90.5071H546.31C528.963 90.5071 512.957 90.6328 510.778 90.7585L506.797 91.0099L486.391 70.5201Z" fill="white"/>
<path d="M789.758 70.5201L769.31 50.0722V28.5768V7.12329H825.248H881.186V23.4648V39.8064H843.391H805.554L814.563 48.8152L823.572 57.824H852.358H881.186V74.1655V90.5071H849.677C832.329 90.5071 816.323 90.6328 814.144 90.7585L810.164 91.0099L789.758 70.5201Z" fill="white"/>
<path d="M149.462 140.244C156.879 127.841 205.065 49.0247 205.275 49.0247C205.484 49.0247 217.929 69.4306 223.167 78.3137L224.047 79.8222L205.568 110.201L187.09 140.579L168.108 140.705C152.27 140.789 149.169 140.705 149.462 140.244Z" fill="white"/>
<path d="M322.222 102.575V64.3187L338.563 80.6603L354.905 97.0018V118.874V140.789H338.563H322.222V102.575Z" fill="white"/>
<path d="M466.363 103.203V65.5757L482.704 81.9172L499.046 98.2588V102.91V107.561L511.951 107.812C519.033 107.98 536.757 108.106 551.339 108.106H577.82V124.447V140.789H522.091H466.363V103.203Z" fill="white"/>
<path d="M769.31 103.203V65.5757L775.302 71.4419C778.57 74.6683 786.028 82.001 791.853 87.7834L802.412 98.2588V102.91V107.561L815.317 107.812C822.399 107.98 840.123 108.106 854.705 108.106H881.186V124.447V140.789H825.248H769.31V103.203Z" fill="white"/>
<path d="M1002.11 138.233C1001.57 136.976 997.421 128.26 992.896 118.791L984.641 101.611L992.602 85.0599C999.516 70.6877 1010.03 48.5638 1025.45 16.0483L1029.64 7.12329H1048.25H1066.85L1066.22 8.29653C1065.26 10.1821 1022.65 99.5997 1012.67 120.676C1007.6 131.403 1003.37 140.244 1003.29 140.328C1003.2 140.412 1002.66 139.49 1002.11 138.233Z" fill="white"/>
<path d="M673.397 86.2331C668.579 75.9673 663.467 65.1567 660.953 59.919C659.486 56.7764 658.271 54.0109 658.271 53.7595C658.271 53.2567 662.419 44.2898 676.666 14.2465L679.934 7.33275L697.616 7.20705C714.922 7.12325 715.299 7.12325 715.047 7.91937C714.922 8.38029 712.45 13.7018 709.558 19.7775C706.667 25.8113 703.65 32.1384 702.896 33.7306C700.172 39.5549 681.987 77.8947 679.012 84.138C677.294 87.6158 675.828 90.507 675.66 90.507C675.534 90.507 674.487 88.5796 673.397 86.2331Z" fill="white"/>
<path d="M102.198 59.8353C98.175 51.8321 91.0098 45.1698 83.3838 42.2786C75.0035 39.0941 64.9472 39.5969 56.7764 43.5775C51.9577 45.924 48.7732 48.4381 45.4211 52.5863C44.1222 54.2205 42.9489 55.5613 42.7813 55.6451C42.6556 55.687 37.2922 50.4913 30.8813 44.0804L19.1908 32.3899L20.3641 30.9652C25.1408 25.0152 33.6049 18.311 41.2729 14.3304C54.7651 7.33283 71.6514 5.32156 86.9454 8.88318C108.022 13.7437 126.333 29.9177 134.168 50.5751C135.132 53.1311 137.437 61.1342 137.437 61.8885C137.437 62.3075 133.791 62.4332 120.467 62.4332H103.496L102.198 59.8353Z" fill="white"/>
<path d="M742.367 39.8902L726.151 23.6743V15.3779V7.12329H742.493H758.834V31.6356C758.834 45.1279 758.792 56.1479 758.709 56.1479C758.667 56.1479 751.334 48.8571 742.367 39.8902Z" fill="white"/>
</svg>
