<svg width="134" height="134" viewBox="0 0 134 134" fill="none" xmlns="http://www.w3.org/2000/svg">
<mask id="mask0_57_29" style="mask-type:alpha" maskUnits="userSpaceOnUse" x="0" y="0" width="134" height="134">
<path d="M58.5288 133.213C43.3605 131.076 30.4129 124.707 19.8119 114.148C10.6774 105.056 5.1464 95.3765 1.83619 82.8061C0.327742 76.9399 -0.216977 71.5765 0.0763331 64.118C0.411544 54.774 1.91999 48.2374 5.73302 39.2286L7.66049 34.7032L20.3566 47.3994L33.0527 60.0536L32.7594 64.9142C32.3404 73.5039 34.5193 80.6691 39.6313 87.4152C48.8077 99.4828 64.814 103.924 79.1443 98.3515C81.7841 97.3458 85.8485 95.0413 85.8485 94.5804C85.8485 94.4127 83.2087 90.5578 79.9404 86.0325L74.0323 77.7779L86.9379 78.0293C94.0612 78.1969 107.47 78.3226 116.772 78.3226H133.616V105.978V133.632H117.065H100.514V129.233C100.514 126.803 100.43 124.833 100.346 124.833C100.304 124.833 98.2513 125.755 95.8629 126.886C86.2256 131.412 78.7672 133.172 68.2499 133.423C64.4369 133.507 60.0791 133.423 58.5288 133.213Z" fill="#333333"/>
<path d="M97.12 52.6789C93.0974 44.6757 85.9323 38.0134 78.3062 35.1222C69.9259 31.9377 59.8696 32.4405 51.6988 36.4212C46.8802 38.7676 43.6957 41.2817 40.3436 45.43C39.0446 47.0641 37.8714 48.405 37.7038 48.4888C37.5781 48.5307 32.2147 43.3349 25.8038 36.924L14.1133 25.2335L15.2865 23.8088C20.0633 17.8588 28.5274 11.1546 36.1953 7.17399C49.6876 0.176456 66.5738 -1.83481 81.8678 1.72681C102.944 6.58737 121.255 22.7613 129.091 43.4187C130.054 45.9747 132.359 53.9779 132.359 54.7321C132.359 55.1511 128.714 55.2768 115.389 55.2768H98.4189L97.12 52.6789Z" fill="#238BE8"/>
</mask>
<g mask="url(#mask0_57_29)">
<rect y="-1" width="138" height="139" fill="white"/>
</g>
</svg>
