<?xml version="1.0" encoding="utf-8"?>
<!-- Uploaded to: SVG Repo, www.svgrepo.com, Generator: SVG Repo Mixer Tools -->
<svg width="800px" height="800px" viewBox="-1.12 0 63 63" xmlns="http://www.w3.org/2000/svg">
  <g id="Group_78" data-name="Group 78" transform="translate(-48 -316)">
    <path id="Path_99" data-name="Path 99" d="M93,378H49V317H84.2l8.8,9Z" fill="#e8f7f9" stroke="#333" stroke-linecap="round" stroke-linejoin="round" stroke-width="2"/>
    <path id="Path_100" data-name="Path 100" d="M93,326H84v-9Z" fill="#e8f7f9" stroke="#333" stroke-linecap="round" stroke-linejoin="round" stroke-width="2"/>
    <line id="Line_117" data-name="Line 117" x1="22" transform="translate(60 339)" fill="none" stroke="#333" stroke-miterlimit="10" stroke-width="2"/>
    <line id="Line_118" data-name="Line 118" x1="22" transform="translate(60 346)" fill="none" stroke="#333" stroke-miterlimit="10" stroke-width="2"/>
    <line id="Line_119" data-name="Line 119" x1="22" transform="translate(60 353)" fill="none" stroke="#333" stroke-miterlimit="10" stroke-width="2"/>
    <line id="Line_120" data-name="Line 120" x1="22" transform="translate(60 339)" fill="none" stroke="#333" stroke-miterlimit="10" stroke-width="2"/>
    <line id="Line_121" data-name="Line 121" x1="22" transform="translate(60 346)" fill="none" stroke="#333" stroke-miterlimit="10" stroke-width="2"/>
    <line id="Line_122" data-name="Line 122" x1="22" transform="translate(60 353)" fill="none" stroke="#333" stroke-miterlimit="10" stroke-width="2"/>
    <path id="Path_101" data-name="Path 101" d="M80.716,369.995l-5.657,1.415,1.414-5.657,26.163-26.163a3,3,0,0,1,4.243,0h0a3,3,0,0,1,0,4.242Z" fill="#cbff94" stroke="#333" stroke-linecap="round" stroke-linejoin="round" stroke-width="2"/>
    <line id="Line_123" data-name="Line 123" x2="4.243" y2="4.243" transform="translate(101 341)" fill="#ffffff" stroke="#333" stroke-miterlimit="10" stroke-width="2"/>
    <line id="Line_124" data-name="Line 124" x2="4.243" y2="4.243" transform="translate(78 363.757)" fill="#ffffff" stroke="#333" stroke-miterlimit="10" stroke-width="2"/>
  </g>
</svg>