<svg width="650" height="650" viewBox="0 0 650 650" fill="none" xmlns="http://www.w3.org/2000/svg">
<g clip-path="url(#clip0_161_141)">
<path d="M324.5 649.5C145 649.5 -0.5 504 -0.5 324.5C-0.5 145 145 -0.5 324.5 -0.5C504 -0.5 649.5 145 649.5 324.5C649.5 504 504 649.5 324.5 649.5ZM485.45 310.45C485.45 296.65 474.25 285.45 460.45 285.45H360.45H285.45H185.45C171.625 285.45 160.45 296.65 160.45 310.45V335.45C160.45 349.275 171.625 360.45 185.45 360.45H285.45C299.275 360.45 360.45 360.45 360.45 360.45H460.45C474.25 360.45 485.45 349.275 485.45 335.45V310.45Z" fill="#C70303"/>
</g>
<defs>
<clipPath id="clip0_161_141">
<rect width="650" height="650" fill="white"/>
</clipPath>
</defs>
</svg>
