<svg width="650" height="650" viewBox="0 0 650 650" fill="none" xmlns="http://www.w3.org/2000/svg">
<path d="M324.5 649.5C145 649.5 -0.5 504 -0.5 324.5C-0.5 145 145 -0.5 324.5 -0.5C504 -0.5 649.5 145 649.5 324.5C649.5 504 504 649.5 324.5 649.5ZM485.45 310.45C485.45 296.65 474.25 285.45 460.45 285.45H360.45V185.45C360.45 171.65 349.275 160.45 335.45 160.45H310.45C296.625 160.45 285.45 171.65 285.45 185.45V285.45H185.45C171.625 285.45 160.45 296.65 160.45 310.45V335.45C160.45 349.275 171.625 360.45 185.45 360.45H285.45V460.45C285.45 474.275 296.625 485.45 310.45 485.45H335.45C349.275 485.45 360.45 474.275 360.45 460.45V360.45H460.45C474.25 360.45 485.45 349.275 485.45 335.45V310.45Z" fill="#03C723"/>
</svg>
